<?xml version="1.0" encoding="UTF-8"?>
<svg xmlns="http://www.w3.org/2000/svg" width="16" height="16" viewBox="0 0 16 16">
  <g fill="#222222">
    <path fill-rule="evenodd" d="M 3.5 1 H 12.5 A 2.5 2.5 0 0 1 15 3.5 V 12.5 A 2.5 2.5 0 0 1 12.5 15 H 3.5 A 2.5 2.5 0 0 1 1 12.5 V 3.5 A 2.5 2.5 0 0 1 3.5 1 Z M 3.5 2 A 1.5 1.5 0 0 0 2 3.5 V 12.5 A 1.5 1.5 0 0 0 3.5 14 H 12.5 A 1.5 1.5 0 0 0 14 12.5 V 3.5 A 1.5 1.5 0 0 0 12.5 2 Z"/>
    <path d="M 1 4 H 15 V 5 H 1 Z"/>
    <path d="M 5 4 H 6 V 15 H 5 Z"/>
    <path d="M 5 8 H 15 V 9 H 5 Z"/>
  </g>
</svg>
